<?xml version="1.0" encoding="UTF-8" standalone="no"?>
<svg
   xmlns:dc="http://purl.org/dc/elements/1.1/"
   xmlns:cc="http://creativecommons.org/ns#"
   xmlns:rdf="http://www.w3.org/1999/02/22-rdf-syntax-ns#"
   xmlns:svg="http://www.w3.org/2000/svg"
   xmlns="http://www.w3.org/2000/svg"
   xmlns:sodipodi="http://sodipodi.sourceforge.net/DTD/sodipodi-0.dtd"
   xmlns:inkscape="http://www.inkscape.org/namespaces/inkscape"
   width="256.0px"
   height="256.0px"
   viewBox="0 0 256.0 256.0"
   version="1.1"
   id="SVGRoot"
   sodipodi:docname="bunnie-big.svg"
   inkscape:version="1.0.1 (1.0.1+r74)"
   inkscape:export-filename="./bunnie-logo.png"
   inkscape:export-xdpi="96.000008"
   inkscape:export-ydpi="96.000008">
  <defs
     id="defs959" />
  <sodipodi:namedview
     id="base"
     pagecolor="#ffffff"
     bordercolor="#666666"
     borderopacity="1.0"
     inkscape:pageopacity="0.0"
     inkscape:pageshadow="2"
     inkscape:zoom="1.979899"
     inkscape:cx="159.40506"
     inkscape:cy="115.43646"
     inkscape:document-units="px"
     inkscape:current-layer="layer1"
     inkscape:document-rotation="0"
     showgrid="true"
     inkscape:window-width="1600"
     inkscape:window-height="872"
     inkscape:window-x="0"
     inkscape:window-y="28"
     inkscape:window-maximized="1">
    <inkscape:grid
       type="xygrid"
       id="grid1529" />
  </sodipodi:namedview>
  <metadata
     id="metadata962">
    <rdf:RDF>
      <cc:Work
         rdf:about="">
        <dc:format>image/svg+xml</dc:format>
        <dc:type
           rdf:resource="http://purl.org/dc/dcmitype/StillImage" />
        <dc:title></dc:title>
      </cc:Work>
    </rdf:RDF>
  </metadata>
  <g
     inkscape:label="Layer 1"
     inkscape:groupmode="layer"
     id="layer1">
    <path
       fill-rule="evenodd"
       stroke="#000000"
       stroke-width="5.29167px"
       stroke-linecap="butt"
       stroke-linejoin="miter"
       fill="#ac560e"
       d="M 42.425136,136.25952 C 22.222079,116.50755 9.1339034,27.576447 41.405136,20.190175 77.929871,11.830223 121.05821,90.773631 113.59997,111.68293 103.4809,140.05069 64.629919,157.96881 42.425184,136.25952 Z"
       id="path876-7"
       style="opacity:1;stroke-width:8.2233;stroke-miterlimit:4;stroke-dasharray:none" />
    <path
       fill-rule="evenodd"
       stroke="#000000"
       stroke-width="3.175px"
       stroke-linecap="butt"
       stroke-linejoin="miter"
       fill="#f2af32"
       d="M 59.648559,122.18466 C 48.165023,105.99155 39.032912,63.568224 52.342623,58.2064 c 14.551072,-5.861952 37.731312,24.334255 39.45456,54.77395 1.31024,23.13947 -22.31944,23.06499 -32.148624,9.20431 z"
       id="path878-6"
       style="opacity:1;stroke-width:4.69902;stroke-miterlimit:4;stroke-dasharray:none" />
    <path
       fill-rule="evenodd"
       stroke="#000000"
       stroke-width="5.29167px"
       stroke-linecap="butt"
       stroke-linejoin="miter"
       fill="#ac560e"
       d="m 193.33201,144.00002 c 31.26676,-32 35.90426,-116.423573 4.58786,-123.809845 -35.44411,-8.359952 -76.99869,70.900544 -69.3211,91.809845 10.41664,28.36776 43.79937,53.70929 64.73324,32 z"
       id="path41683"
       style="opacity:1;stroke-width:8.2233;stroke-miterlimit:4;stroke-dasharray:none"
       sodipodi:nodetypes="cccc" />
    <path
       fill-rule="evenodd"
       stroke="#000000"
       stroke-width="3.175px"
       stroke-linecap="butt"
       stroke-linejoin="miter"
       fill="#f2af32"
       d="m 181.42363,122.18466 c 11.75339,-16.19311 21.10011,-58.616436 7.47765,-63.97826 -14.89299,-5.861952 -38.61795,24.334255 -40.3817,54.77395 -1.34112,23.13947 22.84389,23.06499 32.90405,9.20431 z"
       id="path41685"
       style="opacity:1;stroke-width:4.69902;stroke-miterlimit:4;stroke-dasharray:none" />
    <path
       id="ellipse884-1"
       style="opacity:1;fill:#d56a11;fill-opacity:1;stroke:#000000;stroke-width:6.77869;stroke-linecap:round;stroke-linejoin:round;stroke-miterlimit:4;stroke-dasharray:none"
       d="M 237.59358,204.79014 A 24.927586,25.175955 0 0 1 212.666,229.96609 24.927586,25.175955 0 0 1 187.73841,204.79014 24.927586,25.175955 0 0 1 212.666,179.61417 24.927586,25.175955 0 0 1 237.59358,204.79014 Z" />
    <path
       fill-rule="evenodd"
       stroke="#000000"
       stroke-width="6.61458px"
       stroke-linecap="butt"
       stroke-linejoin="miter"
       fill="#ffd56a"
       d="M 37.024192,197.53371 C 35.387776,164.91205 46.777103,95.857199 115.41813,96.502815 c 73.39748,0.69008 86.16683,70.455755 81.21697,104.735615 -3.23582,22.40952 -40.53267,35.38733 -78.32348,34.64739 -37.790837,-0.74 -80.094628,-14.57406 -81.287428,-38.35211 z"
       id="path886-6"
       sodipodi:nodetypes="scsss"
       style="opacity:1;stroke-width:8.75131;stroke-miterlimit:4;stroke-dasharray:none" />
    <path
       fill-rule="evenodd"
       stroke="#000000"
       stroke-width="7.9375px"
       stroke-linecap="round"
       stroke-linejoin="miter"
       fill="#ffd56a"
       d="m 86.399999,134.40002 v 44.79999"
       id="path890-3"
       style="opacity:1;stroke-width:12.8;stroke-miterlimit:4;stroke-dasharray:none" />
    <path
       fill-rule="evenodd"
       stroke="#000000"
       stroke-width="7.9375px"
       stroke-linecap="round"
       stroke-linejoin="miter"
       fill="#ffd56a"
       d="m 139.2,134.40002 v 44.79999"
       id="path892-3"
       style="opacity:1;stroke-width:12.8;stroke-miterlimit:4;stroke-dasharray:none" />
    <path
       fill-rule="evenodd"
       stroke="#000000"
       stroke-width="7.9375px"
       stroke-linecap="round"
       stroke-linejoin="miter"
       fill="#ffd56a"
       d="m 139.2,134.40002 v 44.79999"
       id="path41675-3"
       style="opacity:1;stroke-width:12.8;stroke-miterlimit:4;stroke-dasharray:none" />
  </g>
</svg>
