<?xml version="1.0" encoding="UTF-8" standalone="no"?>
<!-- Created with Inkscape (http://www.inkscape.org/) -->

<svg
   xmlns:dc="http://purl.org/dc/elements/1.1/"
   xmlns:cc="http://creativecommons.org/ns#"
   xmlns:rdf="http://www.w3.org/1999/02/22-rdf-syntax-ns#"
   xmlns:svg="http://www.w3.org/2000/svg"
   xmlns="http://www.w3.org/2000/svg"
   xmlns:sodipodi="http://sodipodi.sourceforge.net/DTD/sodipodi-0.dtd"
   xmlns:inkscape="http://www.inkscape.org/namespaces/inkscape"
   width="48"
   height="48"
   viewBox="0 0 12.7 12.7"
   version="1.1"
   id="svg8"
   inkscape:version="0.92.3 (2405546, 2018-03-11)"
   sodipodi:docname="faviconia.svg"
   inkscape:export-filename="E:\Akmal\OneDrive\Pictures\favicon\faviconia.png"
   inkscape:export-xdpi="96"
   inkscape:export-ydpi="96">
  <defs
     id="defs2" />
  <sodipodi:namedview
     id="base"
     pagecolor="#ffffff"
     bordercolor="#666666"
     borderopacity="1.0"
     inkscape:pageopacity="0.0"
     inkscape:pageshadow="2"
     inkscape:zoom="2.8"
     inkscape:cx="27.286255"
     inkscape:cy="36.924213"
     inkscape:document-units="px"
     inkscape:current-layer="layer1"
     showgrid="false"
     units="px"
     inkscape:snap-intersection-paths="true"
     inkscape:snap-page="true"
     inkscape:window-width="1366"
     inkscape:window-height="740"
     inkscape:window-x="0"
     inkscape:window-y="28"
     inkscape:window-maximized="1" />
  <metadata
     id="metadata5">
    <rdf:RDF>
      <cc:Work
         rdf:about="">
        <dc:format>image/svg+xml</dc:format>
        <dc:type
           rdf:resource="http://purl.org/dc/dcmitype/StillImage" />
        <dc:title></dc:title>
      </cc:Work>
    </rdf:RDF>
  </metadata>
  <g
     inkscape:label="Layer 1"
     inkscape:groupmode="layer"
     id="layer1"
     transform="translate(0,-284.29999)">
    <g
       id="g831"
       transform="matrix(0.37499998,0,0,0.37499998,-8.5606082e-8,185.625)">
      <g
         transform="translate(-0.39496589,0.55198057)"
         id="g825">
        <path
           sodipodi:nodetypes="cccccccccccccccccccsccc"
           inkscape:connector-curvature="0"
           id="circle849"
           d="m 17.263118,262.82022 c -1.630318,-0.0609 -3.131993,0.88218 -3.785299,2.37712 l -4.7635322,10.90218 c -0.124153,-1.02645 0.0625,-2.18247 0.957045,-3.8747 2.5785582,-4.71062 -4.5780157,-8.49338 -7.0176597,-3.70934 -2.62068968,4.95766 -2.21526368,10.27452 0.136943,14.05858 0.581054,0.93475 1.246579,1.78763 1.970424,2.57452 l -2.36523,5.41207 c -2.22974168,4.89205 5.1989437,8.13745 7.2734567,3.17759 l 1.6427932,-3.75792 c 0.419359,0.233 0.80224,0.55238 1.224216,0.76947 7.420643,3.81761 15.570626,5.2989 15.570626,5.2989 3.17062,0.59868 5.692686,-2.6352 4.339787,-5.56452 l -5.289084,-11.43858 c 0.26125,0.0659 0.535774,0.10432 0.82424,0.10284 0.872952,-0.004 1.813799,-0.43647 2.439127,-1.13482 0.04701,-0.0483 3.681683,-3.7926 3.570325,-9.16378 5.56e-4,0.0267 -2.47e-4,-0.0188 0,-0.014 -8.2e-4,-0.0719 -0.0077,-0.14675 -0.01344,-0.22066 -0.150152,-3.0989 -2.762316,-5.56452 -5.892664,-5.56452 -3.035327,0 -5.592735,2.32078 -5.880261,5.28392 L 20.7182,265.11926 c -0.627476,-1.35528 -1.962619,-2.24387 -3.455086,-2.29909 z"
           style="color:#000000;font-style:normal;font-variant:normal;font-weight:normal;font-stretch:normal;font-size:medium;line-height:normal;font-family:sans-serif;font-variant-ligatures:normal;font-variant-position:normal;font-variant-caps:normal;font-variant-numeric:normal;font-variant-alternates:normal;font-feature-settings:normal;text-indent:0;text-align:start;text-decoration:none;text-decoration-line:none;text-decoration-style:solid;text-decoration-color:#000000;letter-spacing:normal;word-spacing:normal;text-transform:none;writing-mode:lr-tb;direction:ltr;text-orientation:mixed;dominant-baseline:auto;baseline-shift:baseline;text-anchor:start;white-space:normal;shape-padding:0;clip-rule:nonzero;display:inline;overflow:visible;visibility:visible;opacity:1;isolation:auto;mix-blend-mode:normal;color-interpolation:sRGB;color-interpolation-filters:linearRGB;solid-color:#000000;solid-opacity:1;vector-effect:none;fill:#f9f9f9;fill-opacity:1;fill-rule:nonzero;stroke:none;stroke-width:3.96875;stroke-linecap:round;stroke-linejoin:bevel;stroke-miterlimit:4;stroke-dasharray:none;stroke-dashoffset:0;stroke-opacity:1;paint-order:normal;color-rendering:auto;image-rendering:auto;shape-rendering:auto;text-rendering:auto;enable-background:accumulate" />
        <g
           style="stroke-width:1.14251482"
           transform="matrix(0.87500176,0,0,0.87552264,1.2874834,35.867327)"
           id="g835">
          <g
             id="g853"
             style="stroke-width:1.03063667"
             transform="matrix(1.1186321,0,0,1.0985636,-0.60126974,-28.602937)" />
          <path
             sodipodi:nodetypes="cccc"
             inkscape:connector-curvature="0"
             id="path815"
             d="m 5.4217045,292.72041 12.6654835,-28.96989 13.404303,28.96989 c 0,0 -35.5266818,-6.71766 -25.9220228,-24.87631"
             style="fill:none;stroke:#1a1a1a;stroke-width:6.04580736;stroke-linecap:round;stroke-linejoin:round;stroke-miterlimit:4;stroke-dasharray:none;stroke-opacity:1" />
          <g
             transform="matrix(1.1186321,0,0,1.0985636,-0.60126974,-28.602937)"
             style="stroke-width:1.03063667"
             id="g829">
            <circle
               style="opacity:1;vector-effect:none;fill:#ffffff;fill-opacity:1;stroke:#373e48;stroke-width:2.72689271;stroke-linecap:round;stroke-linejoin:bevel;stroke-miterlimit:4;stroke-dasharray:none;stroke-dashoffset:0;stroke-opacity:1;paint-order:normal"
               id="path817"
               cx="27.913542"
               cy="268.31165"
               r="2.6458335" />
            <path
               style="fill:none;stroke:#1a1a1a;stroke-width:2.72689271;stroke-linecap:round;stroke-linejoin:miter;stroke-miterlimit:4;stroke-dasharray:none;stroke-opacity:1"
               d="m 30.559375,268.31165 c 0.09449,3.96875 -2.778124,7.20039 -2.778124,7.20039"
               id="path819"
               inkscape:connector-curvature="0"
               sodipodi:nodetypes="cc" />
          </g>
        </g>
      </g>
    </g>
  </g>
</svg>
